<?xml version="1.0" standalone="no"?><!DOCTYPE svg PUBLIC "-//W3C//DTD SVG 1.1//EN" "http://www.w3.org/Graphics/SVG/1.1/DTD/svg11.dtd"><svg t="1629332984823" class="icon" viewBox="0 0 1024 1024" version="1.1" xmlns="http://www.w3.org/2000/svg" p-id="3475" id="mx_n_1629332984826" xmlns:xlink="http://www.w3.org/1999/xlink" width="200" height="200"><defs><style type="text/css"></style></defs><path d="M325.44 507.57h146.7c16.88 0 30.6-13.73 30.6-30.59v-146.7c0-97.75-79.53-177.28-177.29-177.28s-177.3 79.54-177.3 177.29 79.54 177.28 177.29 177.28z m0.01-303.18c69.42 0 125.9 56.48 125.91 125.9v125.9H325.45c-69.42 0-125.91-56.48-125.91-125.9s56.49-125.9 125.91-125.9zM477.48 525.19h-146.7c-97.75 0-177.27 79.53-177.27 177.28 0 97.76 79.52 177.29 177.27 177.29 97.76 0 177.29-79.53 177.29-177.29V555.78c0-16.87-13.71-30.59-30.59-30.59z m-20.79 177.28c0 69.43-56.49 125.91-125.91 125.91S204.89 771.9 204.89 702.47c0-69.42 56.47-125.9 125.89-125.9h125.91v125.9z" fill="#d4237a" p-id="3476"></path><path d="M704.55 507.57c97.76 0 177.29-79.54 177.29-177.29S802.3 153 704.55 153s-177.29 79.54-177.29 177.29 79.54 177.28 177.29 177.28z m0-303.18c69.42 0 125.91 56.48 125.91 125.9s-56.49 125.9-125.91 125.9-125.91-56.48-125.91-125.9 56.49-125.9 125.91-125.9z" fill="#d4237a" p-id="3477"></path><path d="M704.55 525.19h-146.7c-16.87 0-30.59 13.72-30.59 30.59v146.69c0 97.76 79.54 177.29 177.29 177.29 97.76 0 177.29-79.53 177.29-177.29 0-97.75-79.54-177.28-177.29-177.28z m0.01 303.19c-69.42 0-125.91-56.48-125.91-125.91v-125.9h125.91c69.42 0 125.91 56.48 125.91 125.9 0 69.43-56.49 125.91-125.91 125.91z" fill="#d4237a" p-id="3478"></path></svg>