<?xml version="1.0" standalone="no"?><!DOCTYPE svg PUBLIC "-//W3C//DTD SVG 1.1//EN" "http://www.w3.org/Graphics/SVG/1.1/DTD/svg11.dtd"><svg t="1629332909065" class="icon" viewBox="0 0 1024 1024" version="1.1" xmlns="http://www.w3.org/2000/svg" p-id="2766" xmlns:xlink="http://www.w3.org/1999/xlink" width="200" height="200"><defs><style type="text/css"></style></defs><path d="M849.6 317.74L559.1 87.36c-27.25-21.61-65.3-21.59-92.53 0L176.04 317.74c-17.97 14.26-28.51 36.45-28.19 59.39l5.05 363.44c0.57 40.49 33.97 73.43 74.46 73.43H798.3c40.49 0 73.89-32.94 74.46-73.43l5.05-363.46c0.3-22.93-10.24-45.13-28.21-59.37zM824 739.88c-0.19 13.99-11.72 25.36-25.7 25.36H227.37c-13.98 0-25.51-11.38-25.7-25.36l-5.05-363.43c-0.11-7.92 3.52-15.59 9.73-20.51l290.51-230.38c9.4-7.46 22.55-7.46 31.94 0l290.52 230.38c6.19 4.92 9.84 12.59 9.73 20.5L824 739.88z" fill="#d4237a" p-id="2767"></path><path d="M535.85 448.37h-46.03c-0.81 0-1.47 0.66-1.47 1.47v183.94c0 0.81 0.66 1.47 1.47 1.47h46.03c0.8 0 1.46-0.66 1.47-1.47V449.84c0-0.81-0.66-1.47-1.47-1.47z" fill="#d4237a" p-id="2768"></path></svg>